Moner.Manush.2011 BRRip 720p HD Bengali Movie EngSub.mkv

Info:


Format : Matroska
File size : 2.09 GiB
Duration : 2h 33mn
Overall bit rate : 1 952 Kbps


Video
ID : 1
Format : AVC
Format/Info : Advanced Video Codec
Codec ID : V_MPEG4/ISO/AVC
Duration : 2h 33mn
Bit rate : 1 464 Kbps
Nominal bit rate : 1 500 Kbps
Width : 1 280 pixels
Height : 720 pixels
Display aspect ratio : 16/9
Frame rate : 23.976 fps
Resolution : 24 bits
Stream size : 1.57 GiB (75%)

Audio
ID : 2
Format : AC-3
Format/Info : Audio Coding 3
Codec ID : A_AC3
Duration : 2h 33mn
Bit rate mode : Constant
Bit rate : 448 Kbps
Channel(s) : 6 channels
Channel positions : Front: L C R, Surround: L R, LFE
Sampling rate : 48.0 KHz
Stream size : 491 MiB (23%)
 
http://bdupload.com/image.php?id=0F52_4F6EACFD&jpg 
http://bdupload.com/image.php?id=464B_4F6EAFB4&jpg 
http://bdupload.com/image.php?id=CB4B_4F6EACFD&jpg 
http://bdupload.com/image.php?id=48A0_4F6EAFB4&jpg 
http://bdupload.com/image.php?id=A36E_4F6EAFE8&jpg
